<svg xmlns="http://www.w3.org/2000/svg" width="24" height="24" viewBox="0 0 24 24">
  <g id="orders_active_icon" transform="translate(-28 -183)">
    <path id="cart2" d="M0,2.6A.6.6,0,0,1,.6,2H2.4a.6.6,0,0,1,.582.454L3.468,4.4H17.4a.6.6,0,0,1,.582.746l-1.8,7.2a.6.6,0,0,1-.582.454H4.8a.6.6,0,0,1-.582-.454L1.932,3.2H.6A.6.6,0,0,1,0,2.6Zm3.768,3,1.5,6h0ZM6,17.6c-.663,0,1.2-1.863,1.2-1.2S5.337,17.6,6,17.6s-.477.663-.477,0S6.663,17.6,6,17.6ZM3.6,16.4A2.4,2.4,0,1,1,6,18.8,2.4,2.4,0,0,1,3.6,16.4Zm10.8,1.2c-.663,0,1.333-.831,1.333-.168s-2,.168-1.333.168.152.928.152.266S15.063,17.6,14.4,17.6ZM12,16.4a2.4,2.4,0,1,1,2.4,2.4A2.4,2.4,0,0,1,12,16.4Z" transform="translate(30.995 184.529)" fill="#07004d"/>
    <rect id="Rectangle_4570" data-name="Rectangle 4570" width="24" height="24" transform="translate(28 183)" fill="none"/>
  </g>
</svg>
