<svg xmlns="http://www.w3.org/2000/svg" width="24" height="24" viewBox="0 0 24 24">
  <g id="shipments_active_icon" transform="translate(-1126 -1369)">
    <g id="Group_19766" data-name="Group 19766" transform="translate(1128 1372.9)">
      <g id="Path_16499" data-name="Path 16499" transform="translate(0 0)" fill="#07004d">
        <path d="M 13.00878429412842 13.78079795837402 L 1.662624478340149 13.78079795837402 C 1.021554589271545 13.78079795837402 0.5000045299530029 13.21662712097168 0.5000045299530029 12.52315711975098 L 0.5000045299530029 1.757637500762939 C 0.5000045299530029 1.064167499542236 1.021554589271545 0.4999975562095642 1.662624478340149 0.4999975562095642 L 11.8461742401123 0.4999975562095642 C 12.48724460601807 0.4999975562095642 13.00878429412842 1.064167499542236 13.00878429412842 1.757637500762939 L 13.00878429412842 13.78079795837402 Z" stroke="none"/>
        <path d="M 1.662614822387695 0.9999971389770508 C 1.29725456237793 0.9999971389770508 1.000004768371582 1.339877128601074 1.000004768371582 1.757637977600098 L 1.000004768371582 12.52315711975098 C 1.000004768371582 12.94091796875 1.29725456237793 13.28079795837402 1.662614822387695 13.28079795837402 L 12.50878429412842 13.28079795837402 L 12.50878429412842 1.757637977600098 C 12.50878429412842 1.339877128601074 12.21153450012207 0.9999971389770508 11.84616470336914 0.9999971389770508 L 1.662614822387695 0.9999971389770508 M 1.662614822387695 -2.86102294921875e-06 L 11.84616470336914 -2.86102294921875e-06 C 12.764404296875 -2.86102294921875e-06 13.50878429412842 0.7869176864624023 13.50878429412842 1.757637977600098 L 13.50878429412842 14.28079795837402 L 1.662614822387695 14.28079795837402 C 0.744384765625 14.28079795837402 4.76837158203125e-06 13.49387741088867 4.76837158203125e-06 12.52315711975098 L 4.76837158203125e-06 1.757637977600098 C 4.76837158203125e-06 0.7869176864624023 0.744384765625 -2.86102294921875e-06 1.662614822387695 -2.86102294921875e-06 Z" stroke="none" fill="#07004d"/>
      </g>
      <g id="Rectangle_4283" data-name="Rectangle 4283" transform="translate(0 9.247)" fill="#07004d" stroke="#07004d" stroke-width="1">
        <rect width="14.328" height="5.034" rx="1" stroke="none"/>
        <rect x="0.5" y="0.5" width="13.328" height="4.034" rx="0.5" fill="none"/>
      </g>
      <path id="Path_16497" data-name="Path 16497" d="M643,374.368h5.523a.656.656,0,0,0,.648-.664v-1.882a6.8,6.8,0,0,0-.184-1.57l-.807-4.124c-.119-.5-.6-1.128-1.1-1.128H643Z" transform="translate(-629.171 -360.564)" fill="#07004d" stroke="#07004d" stroke-width="1"/>
      <path id="Path_16498" data-name="Path 16498" d="M654.394,372.5h-2.333a.922.922,0,0,0-.925.882v1.33c0,.354.266.638.713.874l3.284,1.224" transform="translate(-635.355 -366.247)" fill="#fff"/>
    </g>
    <circle id="Ellipse_132" data-name="Ellipse 132" cx="3" cy="3" r="3" transform="translate(1141.5 1384.571)" fill="#fff"/>
    <circle id="Ellipse_134" data-name="Ellipse 134" cx="3" cy="3" r="3" transform="translate(1129.5 1384.571)" fill="#fff"/>
    <rect id="Rectangle_4568" data-name="Rectangle 4568" width="24" height="24" transform="translate(1126 1369)" fill="none"/>
    <g id="Rectangle_4569" data-name="Rectangle 4569" transform="translate(1141.5 1376)" fill="#fff" stroke="#fff" stroke-width="0.8">
      <rect width="0.8" height="12" stroke="none"/>
      <rect x="0.4" y="0.4" height="11.2" fill="none"/>
    </g>
    <g id="Ellipse_77" data-name="Ellipse 77" transform="translate(1142.4 1385.8)" fill="#07004d" stroke="#07004d" stroke-width="1">
      <circle cx="2.094" cy="2.094" r="2.094" stroke="none"/>
      <circle cx="2.094" cy="2.094" r="1.594" fill="none"/>
    </g>
    <g id="Ellipse_133" data-name="Ellipse 133" transform="translate(1130.4 1385.8)" fill="#07004d" stroke="#07004d" stroke-width="1">
      <circle cx="2.094" cy="2.094" r="2.094" stroke="none"/>
      <circle cx="2.094" cy="2.094" r="1.594" fill="none"/>
    </g>
  </g>
</svg>
